<svg width="38" height="38" viewBox="0 0 38 38" fill="none" xmlns="http://www.w3.org/2000/svg">
<path d="M37.3333 9.00829C37.3127 8.21734 37.2515 7.42797 37.15 6.64329C37.0131 5.95602 36.785 5.29013 36.4717 4.66329C36.144 3.98332 35.7039 3.36351 35.17 2.82996C34.6312 2.30233 34.0124 1.86304 33.3367 1.52829C32.709 1.22111 32.0431 0.999144 31.3567 0.868292C30.5795 0.751875 29.7957 0.684519 29.01 0.666626H9.00834C8.21739 0.687226 7.42802 0.748418 6.64334 0.849959C5.95607 0.986851 5.29017 1.21498 4.66334 1.52829C3.98336 1.85598 3.36355 2.29604 2.83001 2.82996C2.30238 3.3688 1.86309 3.98752 1.52834 4.66329C1.22115 5.29096 0.99919 5.95685 0.868338 6.64329C0.751921 7.42051 0.684565 8.20428 0.666672 8.98996V28.9916C0.687272 29.7826 0.748463 30.5719 0.850005 31.3566C0.986897 32.0439 1.21503 32.7098 1.52834 33.3366C1.85602 34.0166 2.29609 34.6364 2.83001 35.17C3.36884 35.6976 3.98756 36.1369 4.66334 36.4716C5.291 36.7788 5.95689 37.0008 6.64334 37.1316C7.42055 37.248 8.20433 37.3154 8.99001 37.3333H28.9917C29.7826 37.3127 30.572 37.2515 31.3567 37.15C32.0439 37.0131 32.7098 36.7849 33.3367 36.4716C34.0166 36.1439 34.6365 35.7039 35.17 35.17C35.6976 34.6311 36.1369 34.0124 36.4717 33.3366C36.7789 32.709 37.0008 32.0431 37.1317 31.3566C37.2481 30.5794 37.3154 29.7956 37.3333 29.01V9.97996V9.00829ZM19.4217 31.8333C17.2199 31.8224 15.0567 31.2548 13.1333 30.1833L6.16667 32.0166L8.00001 25.1966C6.81771 23.2101 6.18498 20.9449 6.16667 18.6333C6.17397 16.0353 6.94988 13.4976 8.39667 11.3398C9.84345 9.18191 11.8964 7.50043 14.297 6.5071C16.6976 5.51378 19.3384 5.25302 21.8869 5.75768C24.4354 6.26234 26.7776 7.50984 28.6185 9.34307C30.4593 11.1763 31.7166 13.5133 32.2318 16.0596C32.7471 18.606 32.4973 21.2479 31.514 23.6526C30.5306 26.0573 28.8577 28.1172 26.7059 29.573C24.5541 31.0287 22.0196 31.8152 19.4217 31.8333ZM19.4217 7.76163C17.478 7.78387 15.5749 8.32076 13.9062 9.31765C12.2375 10.3145 10.8627 11.7358 9.92188 13.4367C8.98105 15.1377 8.50775 17.0576 8.55016 19.0009C8.59257 20.9443 9.14919 22.8417 10.1633 24.5L10.42 24.9216L9.32 28.9366L13.5 27.8L13.9033 28.0383C15.5709 29.0205 17.4681 29.5454 19.4033 29.56C22.3207 29.56 25.1186 28.401 27.1815 26.3381C29.2444 24.2752 30.4033 21.4773 30.4033 18.56C30.4033 15.6426 29.2444 12.8447 27.1815 10.7818C25.1186 8.71888 22.3207 7.55996 19.4033 7.55996L19.4217 7.76163ZM25.8383 23.3816C25.5982 23.7821 25.2767 24.1278 24.8946 24.3962C24.5124 24.6647 24.0782 24.8499 23.62 24.94C22.9353 25.0651 22.2304 25.021 21.5667 24.8116C20.9421 24.6164 20.3299 24.3837 19.7333 24.115C17.4669 22.9777 15.534 21.2722 14.1233 19.165C13.3568 18.1887 12.8917 17.01 12.785 15.7733C12.7741 15.2596 12.8713 14.7493 13.0702 14.2755C13.2692 13.8018 13.5655 13.3752 13.94 13.0233C14.0503 12.8982 14.1856 12.7977 14.3372 12.7282C14.4888 12.6588 14.6533 12.6219 14.82 12.62H15.3333C15.535 12.62 15.81 12.62 16.0667 13.1883C16.3233 13.7566 17.0017 15.4616 17.0933 15.6266C17.1384 15.7146 17.1619 15.812 17.1619 15.9108C17.1619 16.0096 17.1384 16.107 17.0933 16.195C17.0123 16.3942 16.901 16.5797 16.7633 16.745C16.5983 16.9466 16.415 17.185 16.2683 17.3316C16.1217 17.4783 15.9383 17.6616 16.1217 17.9916C16.6205 18.8335 17.2379 19.5991 17.955 20.265C18.7359 20.9549 19.6287 21.5067 20.595 21.8966C20.925 22.0616 21.1267 22.0433 21.31 21.8966C21.4933 21.75 22.135 20.9433 22.355 20.6133C22.575 20.2833 22.795 20.3383 23.0883 20.4483C23.3817 20.5583 25.0133 21.3466 25.3433 21.5116C25.6733 21.6766 25.875 21.75 25.9667 21.8966C26.0462 22.3765 26.002 22.8686 25.8383 23.3266V23.3816Z" fill="black"/>
</svg>
